<svg xmlns="http://www.w3.org/2000/svg" viewBox="0 0 1024 1024" width="960" height="960"><g xmlns="http://www.w3.org/2000/svg" transform="matrix(-1 0 0 1 1024 -0)"><path fill="#000000" opacity="1.000000" stroke="none" d=" M365.983276,117.994812   C386.363525,96.030853 410.024384,79.941109 438.965637,72.396492   C448.146912,70.003044 457.516510,68.664101 467.037262,68.661697   C493.701965,68.654961 520.382324,69.233971 547.027222,68.506294   C576.974060,67.688454 603.902649,76.202950 628.321899,92.813942   C664.496826,117.421700 690.356689,149.849869 701.763184,192.779129   C706.032715,208.848068 706.926636,225.241623 706.290955,241.744125   C706.140747,245.644043 707.451904,247.740005 710.924927,249.498459   C720.028564,254.107773 727.970947,260.363708 735.583740,267.195282   C748.935242,279.176605 754.355896,294.205231 754.330017,311.711456   C754.233032,377.372955 754.768738,443.041718 753.966919,508.694366   C752.813049,603.179199 753.793396,697.660583 753.361816,792.142151   C753.270508,812.140259 753.354553,832.139099 753.348206,852.137634   C753.339966,877.989197 733.107544,901.413757 707.437195,905.454529   C704.133911,905.974487 700.865479,906.362305 697.521545,906.391724   C598.536865,907.261230 499.550323,907.244995 400.563141,907.156189   C386.919891,907.143982 374.805695,903.658875 364.026154,894.929993   C344.619232,879.215149 324.902985,863.881409 305.262238,848.456909   C300.419403,844.653687 295.105988,841.417908 290.466187,837.393982   C277.654785,826.283264 272.727936,811.769409 272.736633,795.129395   C272.792603,687.804077 272.787750,580.478699 272.779541,473.153381   C272.774780,410.824677 272.724396,348.495972 272.698975,286.167267   C272.688202,259.744568 290.877472,237.029434 316.660828,231.609497   C321.044983,230.687881 322.802155,229.210464 322.968201,224.263321   C324.326996,183.785324 338.896576,148.511414 365.983276,117.994812  M296.337891,693.499939   C296.341339,727.162231 296.335693,760.824524 296.351532,794.486816   C296.361298,815.302063 308.759155,827.645020 329.639343,827.645874   C430.127991,827.649780 530.616638,827.648743 631.105286,827.649231   C637.437927,827.649292 643.775696,827.813049 650.102173,827.614685   C670.320374,826.981201 680.828308,812.727905 680.831055,796.744751   C680.848694,695.765625 680.300720,594.787231 681.483887,493.805267   C682.311584,423.165680 682.026367,352.505615 680.648865,281.862366   C680.616638,280.209015 680.554932,278.520020 680.201965,276.914764   C676.676086,260.877136 665.717224,252.398056 647.977661,252.388458   C543.322876,252.331909 438.668030,252.309128 334.013306,252.385101   C311.194580,252.401657 296.340118,267.651093 296.339294,290.545258   C296.334534,424.530121 296.337799,558.515015 296.337891,693.499939  M656.270874,153.184814   C644.159363,136.813141 629.612976,123.010216 612.424500,112.083580   C591.719604,98.921524 569.276062,91.867401 544.492004,92.255714   C520.005920,92.639359 495.508636,92.251114 471.017731,92.413910   C463.217468,92.465759 455.404755,93.159454 447.776611,94.966423   C419.285919,101.715385 396.529724,117.445129 378.206238,139.899002   C358.198547,164.416748 347.641205,192.545471 346.270081,224.191330   C346.056854,229.112961 347.315247,230.804443 352.556427,230.773544   C390.376068,230.550629 428.197662,230.661392 466.018585,230.616714   C467.743042,230.614685 469.699707,231.309845 471.150848,229.709015   C471.218689,227.947632 469.913971,226.962418 469.113464,225.745544   C454.700378,203.836838 461.428406,176.126877 484.654938,163.706085   C489.563721,161.081024 490.994232,158.196915 490.933594,152.898117   C490.821564,143.108643 489.834167,133.262283 491.523804,123.500809   C493.006592,114.934532 501.702362,111.498390 507.933685,111.930534   C517.123474,112.567856 522.258118,118.042305 522.328857,126.642738   C522.397461,134.972794 522.786865,143.334656 522.207153,151.624619   C521.749390,158.170929 523.892212,161.953568 529.524963,165.620682   C548.643860,178.067612 556.858215,203.730270 541.000488,225.785538   C540.087280,227.055710 538.534363,228.147537 539.216064,230.150665   C541.153381,231.027603 543.176819,230.618851 545.133606,230.620880   C577.622986,230.654694 610.115112,230.894211 642.600464,230.532043   C656.203125,230.380386 669.103210,232.174622 681.127808,238.779510   C681.645569,239.063889 682.334167,239.037262 683.448242,239.253555   C685.151123,207.133545 675.299255,179.092026 656.270874,153.184814  M731.736938,574.500000   C731.747375,551.673889 731.883240,528.846985 731.744324,506.021790   C731.357117,442.390228 732.809082,378.763214 732.031982,315.126862   C731.851685,300.361328 727.488586,288.072113 716.877563,278.007721   C713.472473,274.778015 709.735901,271.867706 704.333313,270.550354   C704.333313,273.005127 704.333313,274.646637 704.333313,276.288177   C704.333496,451.235321 704.293640,626.182495 704.413147,801.129578   C704.422302,814.499146 699.439575,825.355286 690.358032,834.645996   C687.360962,837.712097 683.996094,840.418640 680.659241,843.415527   C681.153503,844.211243 681.466492,845.004517 682.018311,845.560730   C692.226440,855.848389 702.495850,866.075500 712.670471,876.396057   C715.191040,878.952820 717.360291,878.179626 719.605469,876.219177   C727.270325,869.526123 731.629089,861.206238 731.635193,850.916687   C731.689575,759.111145 731.707336,667.305542 731.736938,574.500000  M660.595825,859.916138   C656.159729,856.513733 653.440186,851.208862 646.294556,851.224243   C547.994141,851.435974 449.693146,851.357605 351.392303,851.387695   C349.664520,851.388245 347.750336,850.740173 346.196991,852.137939   C346.448608,853.475586 347.362030,854.233582 348.267944,854.942749   C358.621674,863.048340 368.996246,871.127197 379.353851,879.227783   C384.432373,883.199768 390.272797,884.666748 396.609863,884.666077   C490.412201,884.655945 584.214539,884.660706 678.016907,884.633972   C679.889709,884.633423 681.888672,885.067871 684.023987,883.834961   C676.875671,875.206360 668.597290,868.187805 660.595825,859.916138  M523.250854,189.356308   C521.742859,187.811798 520.357910,186.118942 518.705383,184.748810   C512.015442,179.202454 502.308380,178.747757 494.487000,183.491989   C487.792603,187.552597 483.284088,197.010941 484.656677,203.858765   C486.516327,213.136383 492.159454,219.118652 501.141998,221.239838   C509.291626,223.164337 516.892090,221.019485 522.171204,214.201096   C528.012939,206.656143 528.427490,198.368744 523.250854,189.356308  z" /><path fill="#000000" opacity="1.000000" stroke="none" d=" M456.662445,568.971497   C456.669525,523.984009 456.674866,479.490997 456.687714,434.997955   C456.688416,432.507050 456.764526,430.065369 457.429993,427.585510   C458.644348,423.060333 461.499756,420.744110 466.007751,420.714355   C480.504761,420.618591 495.003235,420.613556 509.500183,420.713409   C513.976074,420.744232 517.788818,424.665222 518.281799,429.325958   C518.421387,430.645752 518.346130,431.989685 518.346191,433.322571   C518.348511,480.481903 518.351013,527.641235 518.345520,574.800537   C518.344482,583.612366 515.594971,586.346497 506.713684,586.359863   C494.049011,586.378906 481.384308,586.381226 468.719604,586.370300   C459.768219,586.362549 456.687592,583.306152 456.661011,574.465149   C456.656006,572.798767 456.661560,571.132324 456.662445,568.971497  M480.401917,444.816650   C478.509644,446.581696 479.304596,448.889496 479.300720,450.953308   C479.237793,484.418823 479.156097,517.884766 479.269104,551.349915   C479.318115,565.859802 476.895721,563.287964 491.615356,563.716614   C495.641632,563.833801 496.729675,562.249939 496.719177,558.443787   C496.618835,521.981567 496.627716,485.518860 496.710938,449.056519   C496.718628,445.687988 495.757446,444.102020 492.180420,444.330719   C488.531982,444.563965 484.862244,444.463318 480.401917,444.816650  z" /></g></svg>